REM MD5 d55f24a6e44c8022cbe29e623e4d512a
FILE "Breakout - A Story of Bat Meets Ball...! (Europe) (En,Fr,De,It).bin" BINARY
  TRACK 01 MODE2/2352
    INDEX 01 00:00:00
  TRACK 02 AUDIO
    INDEX 00 01:41:67
    INDEX 01 01:43:67
  TRACK 03 AUDIO
    INDEX 00 02:00:41
    INDEX 01 02:02:41
  TRACK 04 AUDIO
    INDEX 00 04:52:25
    INDEX 01 04:54:25
  TRACK 05 AUDIO
    INDEX 00 05:03:28
    INDEX 01 05:05:28
  TRACK 06 AUDIO
    INDEX 00 05:28:00
    INDEX 01 05:30:00
  TRACK 07 AUDIO
    INDEX 00 08:23:34
    INDEX 01 08:25:34
  TRACK 08 AUDIO
    INDEX 00 08:33:52
    INDEX 01 08:35:52
  TRACK 09 AUDIO
    INDEX 00 09:14:17
    INDEX 01 09:16:17
  TRACK 10 AUDIO
    INDEX 00 09:39:02
    INDEX 01 09:41:02
  TRACK 11 AUDIO
    INDEX 00 13:11:56
    INDEX 01 13:13:56
  TRACK 12 AUDIO
    INDEX 00 16:44:04
    INDEX 01 16:46:04
  TRACK 13 AUDIO
    INDEX 00 19:48:38
    INDEX 01 19:50:38
  TRACK 14 AUDIO
    INDEX 00 21:32:10
    INDEX 01 21:34:10
  TRACK 15 AUDIO
    INDEX 00 22:04:28
    INDEX 01 22:06:28
  TRACK 16 AUDIO
    INDEX 00 22:21:73
    INDEX 01 22:23:73
  TRACK 17 AUDIO
    INDEX 00 22:49:46
    INDEX 01 22:51:46
  TRACK 18 AUDIO
    INDEX 00 23:08:26
    INDEX 01 23:10:26
  TRACK 19 AUDIO
    INDEX 00 23:19:21
    INDEX 01 23:21:21
  TRACK 20 AUDIO
    INDEX 00 23:43:06
    INDEX 01 23:45:06
  TRACK 21 AUDIO
    INDEX 00 24:52:59
    INDEX 01 24:54:59
  TRACK 22 AUDIO
    INDEX 00 25:12:53
    INDEX 01 25:14:53
  TRACK 23 AUDIO
    INDEX 00 25:22:16
    INDEX 01 25:24:16
  TRACK 24 AUDIO
    INDEX 00 25:36:57
    INDEX 01 25:38:57
  TRACK 25 AUDIO
    INDEX 00 25:51:11
    INDEX 01 25:53:11
  TRACK 26 AUDIO
    INDEX 00 26:00:40
    INDEX 01 26:02:40
  TRACK 27 AUDIO
    INDEX 00 26:08:74
    INDEX 01 26:10:74
  TRACK 28 AUDIO
    INDEX 00 26:20:35
    INDEX 01 26:22:35
  TRACK 29 AUDIO
    INDEX 00 27:55:74
    INDEX 01 27:57:74
  TRACK 30 AUDIO
    INDEX 00 30:21:44
    INDEX 01 30:23:44
  TRACK 31 AUDIO
    INDEX 00 33:05:47
    INDEX 01 33:07:47
  TRACK 32 AUDIO
    INDEX 00 34:56:12
    INDEX 01 34:58:12
  TRACK 33 AUDIO
    INDEX 00 36:54:22
    INDEX 01 36:56:22
  TRACK 34 AUDIO
    INDEX 00 38:07:13
    INDEX 01 38:09:13
  TRACK 35 AUDIO
    INDEX 00 41:38:65
    INDEX 01 41:40:65
  TRACK 36 AUDIO
    INDEX 00 44:33:40
    INDEX 01 44:35:40
  TRACK 37 AUDIO
    INDEX 00 45:15:48
    INDEX 01 45:17:48
  TRACK 38 AUDIO
    INDEX 00 45:25:61
    INDEX 01 45:27:61
  TRACK 39 AUDIO
    INDEX 00 46:07:59
    INDEX 01 46:09:59
  TRACK 40 AUDIO
    INDEX 00 46:17:72
    INDEX 01 46:19:72
  TRACK 41 AUDIO
    INDEX 00 46:44:70
    INDEX 01 46:46:70
  TRACK 42 AUDIO
    INDEX 00 46:54:68
    INDEX 01 46:56:68
  TRACK 43 AUDIO
    INDEX 00 49:52:13
    INDEX 01 49:54:13
  TRACK 44 AUDIO
    INDEX 00 50:04:19
    INDEX 01 50:06:19
  TRACK 45 AUDIO
    INDEX 00 53:55:03
    INDEX 01 53:57:03
  TRACK 46 AUDIO
    INDEX 00 56:43:37
    INDEX 01 56:45:37
  TRACK 47 AUDIO
    INDEX 00 59:20:67
    INDEX 01 59:22:67
  TRACK 48 AUDIO
    INDEX 00 62:13:56
    INDEX 01 62:15:56
  TRACK 49 AUDIO
    INDEX 00 65:27:38
    INDEX 01 65:29:38
REM LEADOUT 68:31:11
